<svg width="600" height="800" viewBox="0 0 600 800" xmlns="http://www.w3.org/2000/svg">
  <!-- Background -->
  <rect width="600" height="800" fill="#ffffff" rx="12"/>
  
  <!-- Header -->
  <rect x="0" y="0" width="600" height="60" fill="#f8f9fa" rx="12"/>
  <circle cx="30" cy="30" r="12" fill="#22c55e"/>
  <text x="50" y="35" font-family="Arial, sans-serif" font-size="16" font-weight="bold" fill="#1f2937">Carbon Aegis</text>
  <text x="500" y="35" font-family="Arial, sans-serif" font-size="12" fill="#6b7280">Organisation</text>
  
  <!-- Home Title -->
  <text x="30" y="100" font-family="Arial, sans-serif" font-size="24" font-weight="bold" fill="#1f2937">Home</text>
  
  <!-- Current Reporting Year Button -->
  <rect x="400" y="75" width="170" height="35" fill="#ffffff" stroke="#d1d5db" stroke-width="1" rx="6"/>
  <text x="410" y="95" font-family="Arial, sans-serif" font-size="12" fill="#6b7280">Current Reporting Year</text>
  
  <!-- Environment Section -->
  <text x="30" y="150" font-family="Arial, sans-serif" font-size="18" font-weight="600" fill="#1f2937">Environment</text>
  
  <!-- Carbon Footprint Card -->
  <rect x="30" y="160" width="160" height="90" fill="#ffffff" stroke="#e5e7eb" stroke-width="1" rx="8"/>
  <text x="40" y="180" font-family="Arial, sans-serif" font-size="12" fill="#6b7280">Carbon Footprint (Scope 1, 2, 3)</text>
  <text x="40" y="210" font-family="Arial, sans-serif" font-size="28" font-weight="bold" fill="#1f2937">12</text>
  <text x="80" y="210" font-family="Arial, sans-serif" font-size="12" fill="#6b7280">metric tons</text>
  <text x="40" y="235" font-family="Arial, sans-serif" font-size="12" fill="#22c55e">-5%</text>
  
  <!-- Renewable Energy Card -->
  <rect x="30" y="270" width="160" height="90" fill="#ffffff" stroke="#e5e7eb" stroke-width="1" rx="8"/>
  <text x="40" y="290" font-family="Arial, sans-serif" font-size="12" fill="#6b7280">Renewable Energy Adoption (%)</text>
  <text x="40" y="320" font-family="Arial, sans-serif" font-size="28" font-weight="bold" fill="#1f2937">12</text>
  <text x="80" y="320" font-family="Arial, sans-serif" font-size="12" fill="#6b7280">%</text>
  <text x="40" y="345" font-family="Arial, sans-serif" font-size="12" fill="#22c55e">-5%</text>
  
  <!-- Social Section -->
  <text x="220" y="150" font-family="Arial, sans-serif" font-size="18" font-weight="600" fill="#1f2937">Social</text>
  
  <!-- Employee Diversity Card -->
  <rect x="220" y="160" width="160" height="90" fill="#ffffff" stroke="#e5e7eb" stroke-width="1" rx="8"/>
  <text x="230" y="180" font-family="Arial, sans-serif" font-size="12" fill="#6b7280">Employee Diversity Index</text>
  <text x="230" y="210" font-family="Arial, sans-serif" font-size="28" font-weight="bold" fill="#1f2937">70</text>
  <text x="270" y="210" font-family="Arial, sans-serif" font-size="12" fill="#6b7280">%</text>
  <text x="230" y="235" font-family="Arial, sans-serif" font-size="12" fill="#dc2626">-20%</text>
  
  <!-- Supplier Compliance Card -->
  <rect x="220" y="270" width="160" height="90" fill="#ffffff" stroke="#e5e7eb" stroke-width="1" rx="8"/>
  <text x="230" y="290" font-family="Arial, sans-serif" font-size="12" fill="#6b7280">Supplier Compliance Rate</text>
  <text x="230" y="320" font-family="Arial, sans-serif" font-size="28" font-weight="bold" fill="#1f2937">12</text>
  <text x="270" y="320" font-family="Arial, sans-serif" font-size="12" fill="#6b7280">%</text>
  <text x="230" y="345" font-family="Arial, sans-serif" font-size="12" fill="#22c55e">-5%</text>
  
  <!-- Governance Section -->
  <text x="410" y="150" font-family="Arial, sans-serif" font-size="18" font-weight="600" fill="#1f2937">Governance</text>
  
  <!-- Board Diversity Card -->
  <rect x="410" y="160" width="160" height="90" fill="#ffffff" stroke="#e5e7eb" stroke-width="1" rx="8"/>
  <text x="420" y="180" font-family="Arial, sans-serif" font-size="12" fill="#6b7280">Board Diversity Score</text>
  <text x="420" y="210" font-family="Arial, sans-serif" font-size="28" font-weight="bold" fill="#1f2937">7/10</text>
  
  <!-- Ethics Violation Card -->
  <rect x="410" y="270" width="160" height="90" fill="#ffffff" stroke="#e5e7eb" stroke-width="1" rx="8"/>
  <text x="420" y="290" font-family="Arial, sans-serif" font-size="12" fill="#6b7280">Ethics Violation Rate</text>
  <text x="420" y="320" font-family="Arial, sans-serif" font-size="28" font-weight="bold" fill="#1f2937">20</text>
  <text x="460" y="320" font-family="Arial, sans-serif" font-size="12" fill="#6b7280">%</text>
  <text x="420" y="345" font-family="Arial, sans-serif" font-size="12" fill="#22c55e">+1%</text>
  
  <!-- GHG Emissions Chart -->
  <rect x="30" y="390" width="540" height="280" fill="#ffffff" stroke="#e5e7eb" stroke-width="1" rx="8"/>
  <circle cx="50" cy="410" r="12" fill="#22c55e"/>
  <text x="70" y="415" font-family="Arial, sans-serif" font-size="16" font-weight="bold" fill="#1f2937">GHG Emissions</text>
  <rect x="70" y="420" width="60" height="8" fill="#22c55e" rx="4"/>
  <text x="140" y="427" font-family="Arial, sans-serif" font-size="12" fill="#6b7280">40%</text>
  
  <!-- Chart bars (simplified) -->
  <rect x="60" y="500" width="15" height="60" fill="#22c55e"/>
  <rect x="60" y="460" width="15" height="40" fill="#06b6d4"/>
  <rect x="60" y="440" width="15" height="20" fill="#8b5cf6"/>
  
  <rect x="90" y="510" width="15" height="50" fill="#22c55e"/>
  <rect x="90" y="470" width="15" height="40" fill="#06b6d4"/>
  <rect x="90" y="450" width="15" height="20" fill="#8b5cf6"/>
  
  <rect x="120" y="505" width="15" height="55" fill="#22c55e"/>
  <rect x="120" y="465" width="15" height="40" fill="#06b6d4"/>
  <rect x="120" y="445" width="15" height="20" fill="#8b5cf6"/>
  
  <rect x="150" y="520" width="15" height="40" fill="#22c55e"/>
  <rect x="150" y="480" width="15" height="40" fill="#06b6d4"/>
  <rect x="150" y="460" width="15" height="20" fill="#8b5cf6"/>
  
  <rect x="180" y="515" width="15" height="45" fill="#22c55e"/>
  <rect x="180" y="475" width="15" height="40" fill="#06b6d4"/>
  <rect x="180" y="455" width="15" height="20" fill="#8b5cf6"/>
  
  <rect x="210" y="510" width="15" height="50" fill="#22c55e"/>
  <rect x="210" y="470" width="15" height="40" fill="#06b6d4"/>
  <rect x="210" y="450" width="15" height="20" fill="#8b5cf6"/>
  
  <rect x="240" y="505" width="15" height="55" fill="#22c55e"/>
  <rect x="240" y="465" width="15" height="40" fill="#06b6d4"/>
  <rect x="240" y="445" width="15" height="20" fill="#8b5cf6"/>
  
  <rect x="270" y="500" width="15" height="60" fill="#22c55e"/>
  <rect x="270" y="460" width="15" height="40" fill="#06b6d4"/>
  <rect x="270" y="440" width="15" height="20" fill="#8b5cf6"/>
  
  <rect x="300" y="515" width="15" height="45" fill="#22c55e"/>
  <rect x="300" y="475" width="15" height="40" fill="#06b6d4"/>
  <rect x="300" y="455" width="15" height="20" fill="#8b5cf6"/>
  
  <rect x="330" y="510" width="15" height="50" fill="#22c55e"/>
  <rect x="330" y="470" width="15" height="40" fill="#06b6d4"/>
  <rect x="330" y="450" width="15" height="20" fill="#8b5cf6"/>
  
  <rect x="360" y="505" width="15" height="55" fill="#22c55e"/>
  <rect x="360" y="465" width="15" height="40" fill="#06b6d4"/>
  <rect x="360" y="445" width="15" height="20" fill="#8b5cf6"/>
  
  <rect x="390" y="500" width="15" height="60" fill="#22c55e"/>
  <rect x="390" y="460" width="15" height="40" fill="#06b6d4"/>
  <rect x="390" y="440" width="15" height="20" fill="#8b5cf6"/>
  
  <!-- Month labels -->
  <text x="65" y="580" font-family="Arial, sans-serif" font-size="10" fill="#6b7280">Jan</text>
  <text x="95" y="580" font-family="Arial, sans-serif" font-size="10" fill="#6b7280">Feb</text>
  <text x="125" y="580" font-family="Arial, sans-serif" font-size="10" fill="#6b7280">Mar</text>
  <text x="155" y="580" font-family="Arial, sans-serif" font-size="10" fill="#6b7280">Apr</text>
  <text x="185" y="580" font-family="Arial, sans-serif" font-size="10" fill="#6b7280">May</text>
  <text x="215" y="580" font-family="Arial, sans-serif" font-size="10" fill="#6b7280">Jun</text>
  <text x="245" y="580" font-family="Arial, sans-serif" font-size="10" fill="#6b7280">Jul</text>
  <text x="275" y="580" font-family="Arial, sans-serif" font-size="10" fill="#6b7280">Aug</text>
  <text x="305" y="580" font-family="Arial, sans-serif" font-size="10" fill="#6b7280">Sep</text>
  <text x="335" y="580" font-family="Arial, sans-serif" font-size="10" fill="#6b7280">Oct</text>
  <text x="365" y="580" font-family="Arial, sans-serif" font-size="10" fill="#6b7280">Nov</text>
  <text x="395" y="580" font-family="Arial, sans-serif" font-size="10" fill="#6b7280">Dec</text>
  
  <!-- Legend -->
  <rect x="420" y="580" width="12" height="12" fill="#22c55e"/>
  <text x="440" y="590" font-family="Arial, sans-serif" font-size="10" fill="#6b7280">Scope 1</text>
  <rect x="480" y="580" width="12" height="12" fill="#06b6d4"/>
  <text x="500" y="590" font-family="Arial, sans-serif" font-size="10" fill="#6b7280">Scope 2</text>
  <rect x="420" y="600" width="12" height="12" fill="#8b5cf6"/>
  <text x="440" y="610" font-family="Arial, sans-serif" font-size="10" fill="#6b7280">Scope 3</text>
  
  <!-- Social - Employee Diversity Section -->
  <rect x="30" y="690" width="540" height="80" fill="#ffffff" stroke="#e5e7eb" stroke-width="1" rx="8"/>
  <circle cx="50" cy="710" r="12" fill="#dc2626"/>
  <text x="70" y="715" font-family="Arial, sans-serif" font-size="16" font-weight="bold" fill="#1f2937">Social - Employee Diversity</text>
  <text x="450" y="715" font-family="Arial, sans-serif" font-size="12" fill="#6b7280">Jan 24 - Feb 24 2025</text>
  
  <!-- Placeholder for diversity chart -->
  <rect x="50" y="730" width="500" height="30" fill="#f3f4f6" stroke="#e5e7eb" stroke-width="1" rx="4"/>
  <text x="280" y="750" font-family="Arial, sans-serif" font-size="12" fill="#6b7280" text-anchor="middle">Employee Diversity Chart</text>
</svg>